<svg xmlns="http://www.w3.org/2000/svg" viewBox="0 0 5663 1200" fill="#ffffff"><path d="M157 113V292H335C397 292 435 266 435 208C435 154 397 113 333 113ZM324 549C389 549 416 528 416 477C416 430 387 405 332 405H157V549ZM322 0C489 0 570 77 570 198C570 293 525 338 469 359C515 378 550 426 550 483C550 594 480 664 350 664H23V0Z" transform="translate(0 967) scale(1 -1)"/><path d="M156 0V256C156 335 195 375 275 375C287 375 299 374 311 372V505H294C241 505 191 499 148 433V492H26V0Z" transform="translate(574 967) scale(1 -1)"/><path d="M324 187C323 129 273 80 206 80C165 80 143 98 143 135C143 177 167 198 241 212C289 221 312 228 325 241ZM455 0V311C455 435 401 505 245 505C87 505 31 434 29 332H150C156 376 180 405 239 405C290 405 322 386 322 354C322 320 304 307 239 298C108 280 13 264 13 122C13 42 65 -13 177 -13C243 -13 295 10 326 44C327 29 330 12 334 0Z" transform="translate(895 967) scale(1 -1)"/><path d="M472 0V341C472 448 403 505 309 505C230 505 180 475 150 420V492H26V0H156V282C156 357 189 395 257 395C319 395 341 374 341 298V0Z" transform="translate(1381 967) scale(1 -1)"/><path d="M259 93C194 93 148 154 148 242C148 343 184 394 260 394C332 394 369 341 369 234C369 151 321 93 259 93ZM492 0V672H364V428C327 480 279 505 218 505C91 505 16 400 16 251C16 85 105 -13 229 -13C289 -13 335 10 366 60L367 0Z" transform="translate(1884 967) scale(1 -1)"/><path d="M402 251H233L318 515H319ZM635 0 401 664H240L3 0H150L197 137H442L484 0Z" transform="translate(2648 967) scale(1 -1)"/><path d="M447 343C440 449 376 505 234 505C84 505 27 442 27 359C27 315 43 277 89 248C124 226 170 212 253 192C295 182 332 171 332 136C332 99 291 85 245 85C182 85 143 112 143 158H9C11 58 95 -13 246 -13C386 -13 461 48 461 150C461 214 432 248 380 269C342 284 289 295 233 311C180 326 153 338 153 367C153 396 181 408 230 408C289 408 315 391 322 343Z" transform="translate(3291 967) scale(1 -1)"/><path d="M447 343C440 449 376 505 234 505C84 505 27 442 27 359C27 315 43 277 89 248C124 226 170 212 253 192C295 182 332 171 332 136C332 99 291 85 245 85C182 85 143 112 143 158H9C11 58 95 -13 246 -13C386 -13 461 48 461 150C461 214 432 248 380 269C342 284 289 295 233 311C180 326 153 338 153 367C153 396 181 408 230 408C289 408 315 391 322 343Z" transform="translate(3763 967) scale(1 -1)"/><path d="M149 294C154 362 197 402 249 402C300 402 348 367 350 294ZM484 212C484 407 404 505 253 505C102 505 15 407 15 255C15 77 97 -13 261 -13C366 -13 447 44 477 145H343C334 111 297 90 255 90C191 90 149 138 145 212Z" transform="translate(4235 967) scale(1 -1)"/><path d="M305 196C305 135 281 100 229 100C176 100 154 136 154 198V400H426V492H154V625H26V185C26 79 83 -13 227 -13C366 -13 426 80 426 184V324H305Z" transform="translate(4738 967) scale(1 -1)"/><path d="M447 343C440 449 376 505 234 505C84 505 27 442 27 359C27 315 43 277 89 248C124 226 170 212 253 192C295 182 332 171 332 136C332 99 291 85 245 85C182 85 143 112 143 158H9C11 58 95 -13 246 -13C386 -13 461 48 461 150C461 214 432 248 380 269C342 284 289 295 233 311C180 326 153 338 153 367C153 396 181 408 230 408C289 408 315 391 322 343Z" transform="translate(5191 967) scale(1 -1)"/></svg>