<svg xmlns="http://www.w3.org/2000/svg" viewBox="0 0 3572 1200" fill="#fff"><path d="M469 228C450 145 400 98 318 98C210 98 156 185 156 332C156 477 210 566 325 566C391 566 450 521 469 446H608C595 580 490 686 324 686C134 686 15 549 15 324C15 96 148 -23 322 -23C476 -23 580 77 608 228Z" transform="translate(0 967) scale(1 -1)"/><path d="M156 0V256C156 335 195 375 275 375C287 375 299 374 311 372V505H294C241 505 191 499 148 433V492H26V0Z" transform="translate(613 967) scale(1 -1)"/><path d="M149 294C154 362 197 402 249 402C300 402 348 367 350 294ZM484 212C484 407 404 505 253 505C102 505 15 407 15 255C15 77 97 -13 261 -13C366 -13 447 44 477 145H343C334 111 297 90 255 90C191 90 149 138 145 212Z" transform="translate(934 967) scale(1 -1)"/><path d="M324 187C323 129 273 80 206 80C165 80 143 98 143 135C143 177 167 198 241 212C289 221 312 228 325 241ZM455 0V311C455 435 401 505 245 505C87 505 31 434 29 332H150C156 376 180 405 239 405C290 405 322 386 322 354C322 320 304 307 239 298C108 280 13 264 13 122C13 42 65 -13 177 -13C243 -13 295 10 326 44C327 29 330 12 334 0Z" transform="translate(1437 967) scale(1 -1)"/><path d="M305 196C305 135 281 100 229 100C176 100 154 136 154 198V400H426V492H154V625H26V185C26 79 83 -13 227 -13C366 -13 426 80 426 184V324H305Z" transform="translate(1923 967) scale(1 -1)"/><path d="M159 0V492H29V0ZM159 551V672H29V551Z" transform="translate(2376 967) scale(1 -1)"/><path d="M315 0 492 492H355L251 167L148 492H3L179 0Z" transform="translate(2568 967) scale(1 -1)"/><path d="M149 294C154 362 197 402 249 402C300 402 348 367 350 294ZM484 212C484 407 404 505 253 505C102 505 15 407 15 255C15 77 97 -13 261 -13C366 -13 447 44 477 145H343C334 111 297 90 255 90C191 90 149 138 145 212Z" transform="translate(3069 967) scale(1 -1)"/></svg>