<svg xmlns="http://www.w3.org/2000/svg" viewBox="0 0 4903 1200" fill="#ffffff"><path d="M158 113V549H261C394 549 446 489 446 339C446 189 394 113 273 113ZM301 0C473 0 588 137 588 339C588 541 460 664 280 664H23V0Z" transform="translate(0 967) scale(1 -1)"/><path d="M149 294C154 362 197 402 249 402C300 402 348 367 350 294ZM484 212C484 407 404 505 253 505C102 505 15 407 15 255C15 77 97 -13 261 -13C366 -13 447 44 477 145H343C334 111 297 90 255 90C191 90 149 138 145 212Z" transform="translate(607 967) scale(1 -1)"/><path d="M447 343C440 449 376 505 234 505C84 505 27 442 27 359C27 315 43 277 89 248C124 226 170 212 253 192C295 182 332 171 332 136C332 99 291 85 245 85C182 85 143 112 143 158H9C11 58 95 -13 246 -13C386 -13 461 48 461 150C461 214 432 248 380 269C342 284 289 295 233 311C180 326 153 338 153 367C153 396 181 408 230 408C289 408 315 391 322 343Z" transform="translate(1110 967) scale(1 -1)"/><path d="M305 196C305 135 281 100 229 100C176 100 154 136 154 198V400H426V492H154V625H26V185C26 79 83 -13 227 -13C366 -13 426 80 426 184V324H305Z" transform="translate(1582 967) scale(1 -1)"/><path d="M159 0V492H29V0ZM159 551V672H29V551Z" transform="translate(2035 967) scale(1 -1)"/><path d="M472 0V341C472 448 403 505 309 505C230 505 180 475 150 420V492H26V0H156V282C156 357 189 395 257 395C319 395 341 374 341 298V0Z" transform="translate(2227 967) scale(1 -1)"/><path d="M324 187C323 129 273 80 206 80C165 80 143 98 143 135C143 177 167 198 241 212C289 221 312 228 325 241ZM455 0V311C455 435 401 505 245 505C87 505 31 434 29 332H150C156 376 180 405 239 405C290 405 322 386 322 354C322 320 304 307 239 298C108 280 13 264 13 122C13 42 65 -13 177 -13C243 -13 295 10 326 44C327 29 330 12 334 0Z" transform="translate(2730 967) scale(1 -1)"/><path d="M305 196C305 135 281 100 229 100C176 100 154 136 154 198V400H426V492H154V625H26V185C26 79 83 -13 227 -13C366 -13 426 80 426 184V324H305Z" transform="translate(3216 967) scale(1 -1)"/><path d="M159 0V492H29V0ZM159 551V672H29V551Z" transform="translate(3669 967) scale(1 -1)"/><path d="M268 96C189 96 149 146 149 246C149 346 189 395 268 395C347 395 387 346 387 246C387 146 347 96 268 96ZM268 -13C421 -13 518 90 518 246C518 403 422 505 268 505C112 505 15 402 15 246C15 93 109 -13 268 -13Z" transform="translate(3861 967) scale(1 -1)"/><path d="M472 0V341C472 448 403 505 309 505C230 505 180 475 150 420V492H26V0H156V282C156 357 189 395 257 395C319 395 341 374 341 298V0Z" transform="translate(4400 967) scale(1 -1)"/></svg>