<svg xmlns="http://www.w3.org/2000/svg" viewBox="0 0 1700.0 1200" fill="#fff"><path d="M527 0V118H158V289H483V406H158V548H511V664H23V0Z" transform="translate(0 967) scale(1 -1)"/><path d="M259 93C194 93 148 154 148 242C148 343 184 394 260 394C332 394 369 341 369 234C369 151 321 93 259 93ZM492 0V672H364V428C327 480 279 505 218 505C91 505 16 400 16 251C16 85 105 -13 229 -13C289 -13 335 10 366 60L367 0Z" transform="translate(532.0 967) scale(1 -1)"/><path d="M159 0V492H29V0ZM159 551V672H29V551Z" transform="translate(1055.0 967) scale(1 -1)"/><path d="M305 196C305 135 281 100 229 100C176 100 154 136 154 198V400H426V492H154V625H26V185C26 79 83 -13 227 -13C366 -13 426 80 426 184V324H305Z" transform="translate(1247.0 967) scale(1 -1)"/></svg>