<svg xmlns="http://www.w3.org/2000/svg" viewBox="0 0 2133 1200" fill="#ffffff"><path d="M600 0 332 402 594 664H414L160 394V664H23V0H160V226L234 299L431 0Z" transform="translate(0 967) scale(1 -1)"/><path d="M149 294C154 362 197 402 249 402C300 402 348 367 350 294ZM484 212C484 407 404 505 253 505C102 505 15 407 15 255C15 77 97 -13 261 -13C366 -13 447 44 477 145H343C334 111 297 90 255 90C191 90 149 138 145 212Z" transform="translate(604 967) scale(1 -1)"/><path d="M149 294C154 362 197 402 249 402C300 402 348 367 350 294ZM484 212C484 407 404 505 253 505C102 505 15 407 15 255C15 77 97 -13 261 -13C366 -13 447 44 477 145H343C334 111 297 90 255 90C191 90 149 138 145 212Z" transform="translate(1107 967) scale(1 -1)"/><path d="M258 98C186 98 149 151 149 258C149 341 197 399 259 399C324 399 370 338 370 250C370 149 334 98 258 98ZM154 -233V64C191 12 239 -13 300 -13C427 -13 502 92 502 241C502 407 413 505 289 505C229 505 183 482 152 432L151 492H26V-233Z" transform="translate(1610 967) scale(1 -1)"/></svg>